<svg xmlns="http://www.w3.org/2000/svg" xmlns:xlink="http://www.w3.org/1999/xlink" viewBox="0 0 898.14 898.35"><defs><style>.cls-1{isolation:isolate;}.cls-2{fill:url(#Безымянный_градиент_57);}.cls-3{fill:url(#Безымянный_градиент_25);}.cls-4{fill:url(#Безымянный_градиент_25-2);}.cls-5{fill:url(#Безымянный_градиент_25-3);}.cls-6{fill:url(#Безымянный_градиент_25-4);}.cls-7{fill:url(#Безымянный_градиент_25-5);}.cls-8{fill:url(#Безымянный_градиент_25-6);}.cls-9{fill:url(#Безымянный_градиент_25-7);}.cls-10{fill:url(#Безымянный_градиент_25-8);}.cls-11{fill:url(#Безымянный_градиент_25-9);}.cls-12{fill:url(#Безымянный_градиент_25-10);}.cls-13{fill:url(#Безымянный_градиент_25-11);}.cls-14{fill:url(#Безымянный_градиент_25-12);}.cls-15{fill:url(#Безымянный_градиент_25-13);}.cls-16{fill:url(#Безымянный_градиент_25-14);}.cls-17{fill:url(#Безымянный_градиент_25-15);}.cls-18{fill:url(#Безымянный_градиент_25-16);}.cls-19{fill:url(#Безымянный_градиент_14);}.cls-20{fill:url(#Безымянный_градиент_14-2);}.cls-21{fill:url(#Безымянный_градиент_14-3);}.cls-22{fill:url(#Безымянный_градиент_14-4);}.cls-23{fill:url(#Безымянный_градиент_14-5);}.cls-24{fill:url(#Безымянный_градиент_14-6);}.cls-25{fill:url(#Безымянный_градиент_14-7);}.cls-26{fill:url(#Безымянный_градиент_14-8);}.cls-27{fill:url(#Безымянный_градиент_14-9);}.cls-28{fill:url(#Безымянный_градиент_14-10);}.cls-29{fill:url(#Безымянный_градиент_14-11);}.cls-30{fill:url(#Безымянный_градиент_14-12);}.cls-31{fill:url(#Безымянный_градиент_14-13);}.cls-32{fill:url(#Безымянный_градиент_14-14);}.cls-33{fill:url(#Безымянный_градиент_14-15);}.cls-34{fill:url(#Безымянный_градиент_14-16);}.cls-35,.cls-36,.cls-37,.cls-38,.cls-39,.cls-40,.cls-41,.cls-42,.cls-43,.cls-44{mix-blend-mode:screen;}.cls-35{fill:url(#Безымянный_градиент_39);}.cls-36{fill:url(#Безымянный_градиент_39-2);}.cls-37{fill:url(#Безымянный_градиент_39-3);}.cls-38{fill:url(#Безымянный_градиент_39-4);}.cls-39{fill:url(#Безымянный_градиент_39-5);}.cls-40{fill:url(#Безымянный_градиент_39-6);}.cls-41{fill:url(#Безымянный_градиент_39-7);}.cls-42{fill:url(#Безымянный_градиент_39-8);}.cls-43{fill:url(#Безымянный_градиент_39-9);}.cls-44{fill:url(#Безымянный_градиент_39-10);}</style><linearGradient id="Безымянный_градиент_57" x1="142.81" y1="139.37" x2="762.07" y2="765.58" gradientUnits="userSpaceOnUse"><stop offset="0" stop-color="#0d0d0d"/><stop offset="0.51" stop-color="#212121"/><stop offset="1" stop-color="#0d0d0d"/></linearGradient><linearGradient id="Безымянный_градиент_25" x1="287.94" y1="317.4" x2="651.24" y2="614.64" gradientUnits="userSpaceOnUse"><stop offset="0" stop-color="#4c4c4c"/><stop offset="0.46" stop-color="#afafaf"/><stop offset="1" stop-color="#515151"/></linearGradient><linearGradient id="Безымянный_градиент_25-2" x1="299.14" y1="311.85" x2="599.03" y2="586.63" xlink:href="#Безымянный_градиент_25"/><linearGradient id="Безымянный_градиент_25-3" x1="659.81" y1="458.3" x2="303.11" y2="162.38" xlink:href="#Безымянный_градиент_25"/><linearGradient id="Безымянный_градиент_25-4" x1="26.2" y1="143.29" x2="595.59" y2="762.88" xlink:href="#Безымянный_градиент_25"/><linearGradient id="Безымянный_градиент_25-5" x1="357.16" y1="256.4" x2="269.97" y2="724.07" xlink:href="#Безымянный_градиент_25"/><linearGradient id="Безымянный_градиент_25-6" x1="-52.36" y1="215.47" x2="517.04" y2="835.07" gradientTransform="translate(329.84 -116.59) rotate(22.5)" xlink:href="#Безымянный_градиент_25"/><linearGradient id="Безымянный_градиент_25-7" x1="342.38" y1="633" x2="791.55" y2="432.19" xlink:href="#Безымянный_градиент_25"/><linearGradient id="Безымянный_градиент_25-8" x1="335.32" y1="-140.79" x2="904.72" y2="478.8" xlink:href="#Безымянный_градиент_25"/><linearGradient id="Безымянный_градиент_25-9" x1="249.66" y1="17.18" x2="841.18" y2="741.47" xlink:href="#Безымянный_градиент_25"/><linearGradient id="Безымянный_градиент_25-10" x1="431.15" y1="-131.04" x2="1022.67" y2="593.25" xlink:href="#Безымянный_градиент_25"/><linearGradient id="Безымянный_градиент_25-11" x1="454.84" y1="-150.39" x2="1046.36" y2="573.9" xlink:href="#Безымянный_градиент_25"/><linearGradient id="Безымянный_градиент_25-12" x1="4.87" y1="217.09" x2="596.4" y2="941.38" xlink:href="#Безымянный_градиент_25"/><linearGradient id="Безымянный_градиент_25-13" x1="-139.62" y1="335.1" x2="451.9" y2="1059.39" xlink:href="#Безымянный_градиент_25"/><linearGradient id="Безымянный_градиент_25-14" x1="-117.69" y1="317.19" x2="473.83" y2="1041.48" xlink:href="#Безымянный_градиент_25"/><linearGradient id="Безымянный_градиент_25-15" x1="308.89" y1="-31.2" x2="900.42" y2="693.09" xlink:href="#Безымянный_градиент_25"/><linearGradient id="Безымянный_градиент_25-16" x1="62.46" y1="170.06" x2="653.98" y2="894.35" xlink:href="#Безымянный_градиент_25"/><linearGradient id="Безымянный_градиент_14" x1="300.02" y1="323.32" x2="636.1" y2="598.29" gradientUnits="userSpaceOnUse"><stop offset="0" stop-color="#ababab"/><stop offset="0.46" stop-color="#fff"/><stop offset="1" stop-color="#a1a1a1"/></linearGradient><linearGradient id="Безымянный_градиент_14-2" x1="303.81" y1="312.17" x2="594.35" y2="578.4" xlink:href="#Безымянный_градиент_14"/><linearGradient id="Безымянный_градиент_14-3" x1="660.58" y1="447.53" x2="318.73" y2="163.91" xlink:href="#Безымянный_градиент_14"/><linearGradient id="Безымянный_градиент_14-4" x1="48.55" y1="163.66" x2="526.78" y2="684.05" xlink:href="#Безымянный_градиент_14"/><linearGradient id="Безымянный_градиент_14-5" x1="348.67" y1="254.89" x2="264.95" y2="703.96" xlink:href="#Безымянный_градиент_14"/><linearGradient id="Безымянный_градиент_14-6" x1="29.36" y1="300.44" x2="507.58" y2="820.83" xlink:href="#Безымянный_градиент_14"/><linearGradient id="Безымянный_градиент_14-7" x1="348.06" y1="632.73" x2="775.91" y2="441.46" xlink:href="#Безымянный_градиент_14"/><linearGradient id="Безымянный_градиент_14-8" x1="397.45" y1="-77.15" x2="875.67" y2="443.24" xlink:href="#Безымянный_градиент_14"/><linearGradient id="Безымянный_градиент_14-9" x1="225.82" y1="-40.92" x2="734.11" y2="796.33" xlink:href="#Безымянный_градиент_14"/><linearGradient id="Безымянный_градиент_14-10" x1="450.87" y1="-177.55" x2="959.16" y2="659.69" xlink:href="#Безымянный_градиент_14"/><linearGradient id="Безымянный_градиент_14-11" x1="515.08" y1="-216.54" x2="1023.38" y2="620.71" xlink:href="#Безымянный_градиент_14"/><linearGradient id="Безымянный_градиент_14-12" x1="-34.3" y1="116.99" x2="473.99" y2="954.24" xlink:href="#Безымянный_градиент_14"/><linearGradient id="Безымянный_градиент_14-13" x1="-168.55" y1="198.5" x2="339.74" y2="1035.74" xlink:href="#Безымянный_градиент_14"/><linearGradient id="Безымянный_градиент_14-14" x1="-106.7" y1="160.95" x2="401.59" y2="998.2" xlink:href="#Безымянный_градиент_14"/><linearGradient id="Безымянный_градиент_14-15" x1="379.28" y1="-134.09" x2="887.58" y2="703.16" xlink:href="#Безымянный_градиент_14"/><linearGradient id="Безымянный_градиент_14-16" x1="117.13" y1="25.06" x2="625.42" y2="862.31" xlink:href="#Безымянный_градиент_14"/><radialGradient id="Безымянный_градиент_39" cx="-2213.25" cy="-3765.92" r="60.75" gradientTransform="matrix(0, 1.75, -0.51, 0, -1368.56, 4095.3)" gradientUnits="userSpaceOnUse"><stop offset="0" stop-color="#fff"/><stop offset="0.06" stop-color="#fff" stop-opacity="0.83"/><stop offset="0.15" stop-color="#fff" stop-opacity="0.64"/><stop offset="0.24" stop-color="#fff" stop-opacity="0.47"/><stop offset="0.33" stop-color="#fff" stop-opacity="0.32"/><stop offset="0.43" stop-color="#fff" stop-opacity="0.21"/><stop offset="0.53" stop-color="#fff" stop-opacity="0.11"/><stop offset="0.63" stop-color="#fff" stop-opacity="0.05"/><stop offset="0.75" stop-color="#fff" stop-opacity="0.01"/><stop offset="0.91" stop-color="#fff" stop-opacity="0"/></radialGradient><radialGradient id="Безымянный_градиент_39-2" cx="-5139.16" cy="-6016.2" r="60.75" gradientTransform="translate(-8792.99 -2627.83) rotate(180) scale(1.75 0.51)" xlink:href="#Безымянный_градиент_39"/><radialGradient id="Безымянный_градиент_39-3" cx="-5014.28" cy="-5983.69" r="60.75" gradientTransform="matrix(0, 1.75, -0.51, 0, -2956.52, 9452.1)" xlink:href="#Безымянный_градиент_39"/><radialGradient id="Безымянный_градиент_39-4" cx="-7401.71" cy="-3409.76" r="60.75" gradientTransform="translate(-12345.91 -1132.34) rotate(180) scale(1.75 0.51)" xlink:href="#Безымянный_градиент_39"/><radialGradient id="Безымянный_градиент_39-5" cx="-3387.1" cy="-5391" r="60.75" gradientTransform="matrix(0, 1.75, -0.51, 0, -1945.81, 6133.28)" xlink:href="#Безымянный_градиент_39"/><radialGradient id="Безымянный_градиент_39-6" cx="-7425.64" cy="3438.6" r="41.43" gradientTransform="matrix(0, -1.75, 0.51, 0, -1243.29, -12642.7)" xlink:href="#Безымянный_градиент_39"/><radialGradient id="Безымянный_градиент_39-7" cx="-10278.67" cy="2268.88" r="41.43" gradientTransform="matrix(0, -0.94, 0.62, 0, -678.72, -9412.57)" xlink:href="#Безымянный_градиент_39"/><radialGradient id="Безымянный_градиент_39-8" cx="-10098.11" cy="2029.3" r="62.05" gradientTransform="matrix(0, -0.94, 0.62, 0, -786.8, -9093.52)" xlink:href="#Безымянный_градиент_39"/><radialGradient id="Безымянный_градиент_39-9" cx="-9749.91" cy="2023.39" r="41.43" gradientTransform="matrix(0, -0.94, 0.62, 0, -1082.73, -8898.71)" xlink:href="#Безымянный_градиент_39"/><radialGradient id="Безымянный_градиент_39-10" cx="-10244.06" cy="1720.81" r="41.43" gradientTransform="matrix(0, -0.94, 0.62, 0, -603.07, -8888.51)" xlink:href="#Безымянный_градиент_39"/></defs><g class="cls-1"><g id="Слой_2" data-name="Слой 2"><g id="Слой_1-2" data-name="Слой 1"><circle class="cls-2" cx="449.06" cy="449.06" r="449.06"/><circle class="cls-3" cx="449.07" cy="449.23" r="53.68"/><path class="cls-4" d="M449.07,577.57a128.34,128.34,0,0,1,0-256.68c70.77,0,128.35,57.57,128.35,128.34S519.84,577.57,449.07,577.57Zm0-219.68a91.34,91.34,0,1,0,91.35,91.34A91.45,91.45,0,0,0,449.07,357.89Z"/><path class="cls-5" d="M574.55,549.48a236.41,236.41,0,0,0,30.56-80.2c13.68-75.7-11.14-157-59.72-207.6-75.82-79.09-217.56-91.89-332.72-16.35,20-18.05,54.87-44.8,104.51-61.14,18.18-6,136.69-45,235.32,24.13,87.7,61.48,135.68,191.63,88.18,278C622.81,518.75,595.29,538.2,574.55,549.48Z"/><circle class="cls-6" cx="165.83" cy="295.23" r="25.04"/><path class="cls-7" d="M473.82,289.7a236,236,0,0,0-84.74,13.62c-72.4,26-130.35,88.18-149.92,155.52-30.63,105.21,29.21,234.35,152.22,296.32-25.65-8.35-66.24-25.12-105.2-59.93-14.28-12.76-107.3-95.89-96.73-215.89C198.84,372.67,287.56,266,386.11,264,423.07,263.27,453.69,277.41,473.82,289.7Z"/><circle class="cls-8" cx="457.99" cy="770.82" r="25.04" transform="translate(-260.12 233.94) rotate(-22.5)"/><path class="cls-9" d="M298.77,508.26a236.29,236.29,0,0,0,54.17,66.57c58.73,49.7,141.53,68.8,209.65,52.08,106.4-26.12,188.31-142.47,180.52-280,5.63,26.37,11.36,69.93.7,121.08-3.92,18.74-29.4,140.87-138.63,191.71-97.09,45.2-233.8,21.69-284.83-62.65C301.24,565.43,298.17,531.85,298.77,508.26Z"/><circle class="cls-10" cx="723.32" cy="281.42" r="25.04"/><path class="cls-11" d="M173,158.4a399.51,399.51,0,0,1,261-109.86V.24a447.86,447.86,0,0,0-295.17,124Z"/><path class="cls-12" d="M458.75,48.37A399.49,399.49,0,0,1,722.36,155.81l34.11-34.12A447.71,447.71,0,0,0,458.75.1Z"/><path class="cls-13" d="M739.9,173.2a399.52,399.52,0,0,1,110,263.68h48.27A447.75,447.75,0,0,0,774.05,139.06Z"/><path class="cls-14" d="M48.27,436.88A399.41,399.41,0,0,1,155.65,176L121.5,141.81A447.67,447.67,0,0,0,0,436.88Z"/><path class="cls-15" d="M155.65,722.52A399.38,399.38,0,0,1,48.27,461.59H0A447.72,447.72,0,0,0,121.5,756.67Z"/><path class="cls-16" d="M434.05,849.93A399.51,399.51,0,0,1,173,740.07l-34.15,34.14a447.74,447.74,0,0,0,295.17,124Z"/><path class="cls-17" d="M849.85,461.59a399.42,399.42,0,0,1-110,263.67l34.15,34.15A447.82,447.82,0,0,0,898.14,461.59Z"/><path class="cls-18" d="M722.36,742.65A399.59,399.59,0,0,1,458.75,850.09v48.26A447.7,447.7,0,0,0,756.47,776.81Z"/><path class="cls-19" d="M449.07,495a49.68,49.68,0,1,1,49.68-49.67A49.72,49.72,0,0,1,449.07,495Z"/><path class="cls-20" d="M449.07,569.62A124.35,124.35,0,1,1,573.42,445.28,124.48,124.48,0,0,1,449.07,569.62Zm0-219.69a95.35,95.35,0,1,0,95.35,95.35A95.45,95.45,0,0,0,449.07,349.93Z"/><path class="cls-21" d="M585.43,534.43a239.52,239.52,0,0,0,23.62-68.38C622.7,390.5,598.84,307.65,548.28,255,506.91,211.8,444.48,187.05,377,187.05a297.23,297.23,0,0,0-119.15,25.28A282,282,0,0,1,318.43,184,318.64,318.64,0,0,1,417,167.88c50.74,0,95.55,13.38,133.21,39.76,42,29.49,76.06,76,93.29,127.65,17.89,53.65,15.65,105.18-6.33,145.13C625.47,501.68,608.1,519.8,585.43,534.43Z"/><path class="cls-22" d="M165.83,312.31a21,21,0,1,1,21-21A21.07,21.07,0,0,1,165.83,312.31Z"/><path class="cls-23" d="M344.14,726.84a281.81,281.81,0,0,1-55.3-38.55C257,659.84,184.06,582.21,193.44,475.74c4.5-51.17,27.79-103.87,63.9-144.61,37.51-42.32,83.27-66.14,128.85-67.08.89,0,1.79,0,2.68,0,23.29,0,46.74,6,69.88,17.84a239.35,239.35,0,0,0-71,13.74c-72.19,25.91-132,88-152.41,158.17C207.34,549.87,253.27,659.75,344.14,726.84Z"/><path class="cls-24" d="M458,787.91a21,21,0,1,1,21.05-21A21.07,21.07,0,0,1,458,787.91Z"/><path class="cls-25" d="M498.85,674.36c-76.9,0-144-31.92-175.07-83.3-12.53-20.74-19.51-44.83-20.84-71.79a239.11,239.11,0,0,0,47.41,54.65c44.28,37.47,103.23,59,161.75,59a215.75,215.75,0,0,0,51.44-6C660.8,603,733,508.1,745.65,395.78a282.09,282.09,0,0,1-5.76,67.47C731.16,505,700.4,607,603.49,652.14,572.27,666.68,536.09,674.36,498.85,674.36Z"/><path class="cls-26" d="M723.32,298.5a21,21,0,1,1,21-21A21.07,21.07,0,0,1,723.32,298.5Z"/><path class="cls-27" d="M144.62,120.38A443.12,443.12,0,0,1,430.05.44v40.3A403.2,403.2,0,0,0,173.12,148.87Z"/><path class="cls-28" d="M722.25,146.3A403,403,0,0,0,462.76,40.52V.25a442.87,442.87,0,0,1,288,117.59Z"/><path class="cls-29" d="M853.72,428.92A402.91,402.91,0,0,0,745.48,169.33L774,140.84A442.76,442.76,0,0,1,894,428.92Z"/><path class="cls-30" d="M4.13,428.92A443.11,443.11,0,0,1,121.6,143.61l28.5,28.49A403.19,403.19,0,0,0,44.4,428.92Z"/><path class="cls-31" d="M121.6,747A443.13,443.13,0,0,1,4.13,461.63H44.4A403.19,403.19,0,0,0,150.1,718.45Z"/><path class="cls-32" d="M430.05,890.12A443.09,443.09,0,0,1,144.63,770.18l28.49-28.49A403.19,403.19,0,0,0,430.05,849.81Z"/><path class="cls-33" d="M745.48,721.23a403,403,0,0,0,108.24-259.6H894A442.86,442.86,0,0,1,774,749.72Z"/><path class="cls-34" d="M462.76,850A403,403,0,0,0,722.25,744.24l28.46,28.51a443,443,0,0,1-288,117.55Z"/><ellipse class="cls-35" cx="562.82" cy="223.62" rx="32.06" ry="105.54" transform="translate(35.71 521.82) rotate(-51.17)"/><ellipse class="cls-36" cx="197.01" cy="457.63" rx="105.54" ry="32.06" transform="translate(-288.29 570.43) rotate(-79.79)"/><ellipse class="cls-37" cx="112.27" cy="680.56" rx="32.06" ry="105.54" transform="translate(-404.53 223.74) rotate(-39.16)"/><ellipse class="cls-38" cx="602" cy="616.38" rx="105.54" ry="32.06" transform="translate(-211.66 333.01) rotate(-26.47)"/><ellipse class="cls-39" cx="819.01" cy="208.17" rx="32.06" ry="105.54" transform="translate(17.44 475.75) rotate(-32.72)"/><ellipse class="cls-40" cx="520.23" cy="347.08" rx="21.86" ry="71.97" transform="translate(-62.09 575.13) rotate(-55.1)"/><ellipse class="cls-41" cx="730.72" cy="261.24" rx="26.48" ry="38.72" transform="translate(185.42 813.37) rotate(-65.03)"/><ellipse class="cls-42" cx="473.82" cy="410.35" rx="39.66" ry="57.99" transform="translate(-98.2 666.65) rotate(-65.03)"/><ellipse class="cls-43" cx="174.21" cy="277.46" rx="26.48" ry="38.72" transform="translate(-150.86 318.25) rotate(-65.03)"/><ellipse class="cls-44" cx="465.91" cy="752.73" rx="26.48" ry="38.72" transform="translate(-413.14 857.31) rotate(-65.03)"/></g></g></g></svg>